<svg xmlns="http://www.w3.org/2000/svg" viewBox="352 218 701 332" fill="#ffffff" stroke="#000000" stroke-width="32" stroke-linejoin="round" stroke-linecap="round" paint-order="stroke fill" aria-hidden="true">
  <path d="M 1040.954,262.579 C 1045.262,274.764 1045.011,276.054 1018.613,378 C 1005.582,428.325 993.544,474 991.862,479.500 C 983.523,506.774 967.761,524.137 945,531.124 C 935.453,534.055 917.060,534.325 907.137,531.680 C 891.519,527.517 877.019,516.691 869.181,503.341 C 862.999,492.812 860.568,484.315 852.921,446.505 C 849.028,427.258 845.664,411.331 845.445,411.112 C 844.739,410.406 844.160,412.957 836.968,448.430 C 832.490,470.517 828.769,486.257 826.848,491.239 C 816.897,517.043 796.777,531.775 769,533.597 C 743.499,535.270 719.580,522.608 707.271,500.919 C 701.411,490.593 699.523,484.710 688.529,442.500 C 673.260,383.875 662.715,343.656 654.838,314 C 647.959,288.101 647.534,285.889 647.548,276 C 647.567,262.707 649.795,256.496 657.543,248.127 C 673.929,230.428 700.911,229.453 718.333,245.930 C 725.337,252.554 728.504,259.318 732.613,276.424 C 734.472,284.166 741.591,313.912 748.430,342.526 C 763.293,404.708 764.155,408.178 764.632,407.701 C 764.836,407.497 769.033,389.144 773.959,366.915 C 791.994,285.539 793.309,280.449 798.631,271.367 C 805.181,260.191 816.918,250.703 828.928,246.877 C 838.242,243.910 853.131,243.922 861.829,246.904 C 878.701,252.689 891.036,265.422 897.020,283.229 C 898.593,287.910 903.290,307.211 907.457,326.120 C 923.263,397.843 925.209,406.512 925.599,406.917 C 925.733,407.056 925.866,407.194 926,407.333 C 926.110,407.194 926.221,407.056 926.331,406.917 C 926.513,406.688 928.082,400.425 929.818,393 C 952.448,296.202 961.110,261.573 964.095,255.973 C 970.117,244.675 981.103,237.002 994.557,234.697 C 996.705,234.329 998.852,233.962 1001,233.594 C 1003.148,233.962 1005.295,234.329 1007.443,234.697 C 1023.602,237.465 1035.607,247.453 1040.954,262.579 Z"/>
  <path fill-rule="evenodd" d="M 382.109,484 C 380.545,489.225 381.404,498.911 383.859,503.723 C 388.517,512.853 397.040,518 407.500,518 C 417.987,518 426.507,513.085 431.150,504.356 C 432.672,501.494 436.323,489.045 440.039,474.042 C 445.282,452.877 446.762,448.198 448.818,446.292 C 449.643,445.528 450.467,444.764 451.292,444 C 473.225,444 495.157,444 517.090,444 C 539.023,444 560.955,444 582.888,444 C 583.727,444.750 584.567,445.500 585.406,446.250 C 587.522,448.141 588.901,452.405 594.054,473 C 601.172,501.451 602.744,505.587 608.422,510.821 C 614.404,516.335 620.387,518.384 628.747,517.784 C 639.731,516.996 646.811,512.209 650.999,502.738 C 654.937,493.833 654.433,491.056 639,436.500 C 631.221,409 621.261,373.675 616.868,358 C 612.475,342.325 607.293,324.775 605.352,319 C 589.458,271.702 556.997,247.943 511.500,250.308 C 485.755,251.647 465.227,261.719 449.437,280.762 C 442.443,289.196 438.505,295.860 433.226,308.191 C 429.167,317.672 423.584,336.649 396.506,433 C 389.164,459.125 382.685,482.075 382.109,484 Z M 482.168,369.500 C 481.103,373.350 480.180,377.513 480.116,378.750 C 480.077,379.500 480.039,380.250 480,381 C 492.500,381 505,381 517.500,381 C 538.125,381 555,380.861 555,380.692 C 555,378.893 544.347,341.301 541.997,334.806 C 536.730,320.249 529.161,313.736 517.545,313.765 C 506.410,313.793 499.220,318.686 494.500,329.446 C 492.504,333.997 487.414,350.529 482.168,369.500 Z"/>
</svg>
